<svg width="118" height="24" viewBox="0 0 118 24" fill="none" xmlns="http://www.w3.org/2000/svg">
<path d="M48.5719 8.58376C48.5719 6.46504 49.3511 4.66309 50.9095 3.17666C52.4684 1.69146 54.3672 0.948242 56.6073 0.948242C58.8575 0.948242 60.7668 1.69557 62.3358 3.19227C63.8837 4.68856 64.6578 6.52585 64.6578 8.70455C64.6578 10.9034 63.8782 12.746 62.3202 14.232C60.7512 15.7082 58.8266 16.4465 56.5452 16.4465C54.2844 16.4465 52.3907 15.6934 50.8631 14.1868C49.3355 12.7004 48.5719 10.8331 48.5719 8.58376ZM52.133 8.64416C52.133 10.1096 52.5355 11.2699 53.3405 12.1232C54.1657 12.9872 55.2545 13.4182 56.6068 13.4182C57.9697 13.4182 59.0585 12.9917 59.8736 12.138C60.6891 11.2851 61.0967 10.145 61.0967 8.71934C61.0967 7.29371 60.6891 6.15404 59.8736 5.30071C59.0475 4.43712 57.9587 4.00574 56.6068 4.00574C55.2756 4.00574 54.197 4.43712 53.3713 5.30071C52.5457 6.16431 52.133 7.27851 52.133 8.64416Z" fill="#4FB8A2"/>
<path d="M47.8832 16.0236L42.2974 8.68886L47.8832 1.35449H43.9048L40.2229 6.15273L36.541 1.35449H32.5626L38.1484 8.68886L32.5621 16.0236H36.5405L40.2229 11.225L43.9052 16.0236H47.8832Z" fill="#4FB8A2"/>
<path d="M24.0956 0.948242C19.1597 0.948242 16.8187 4.67048 16.8187 8.70414C16.8187 12.7382 19.1935 16.4457 24.2805 16.4457C29.368 16.4457 31.1342 12.6067 31.1342 12.6067L27.9827 11.4831C27.9827 11.4831 26.9231 13.4182 24.4051 13.4182C20.5501 13.4182 20.4567 9.48721 20.4567 9.48721H31.2634C31.6144 4.58092 29.0314 0.948242 24.0956 0.948242ZM20.689 6.71648C20.689 6.71648 21.1287 4.00574 24.1728 4.00574C27.217 4.00574 27.6871 6.71648 27.6871 6.71648H20.689Z" fill="#4FB8A2"/>
<path d="M91.972 0.948242C87.0361 0.948242 84.6956 4.67048 84.6956 8.70414C84.6956 12.7382 87.0704 16.4457 92.1578 16.4457C97.2448 16.4457 99.011 12.6067 99.011 12.6067L95.8596 11.4831C95.8596 11.4831 94.7999 13.4182 92.282 13.4182C88.4269 13.4182 88.3336 9.48721 88.3336 9.48721H99.1403C99.4912 4.58092 96.9078 0.948242 91.972 0.948242ZM88.5658 6.71648C88.5658 6.71648 89.0055 4.00574 92.0497 4.00574C95.0939 4.00574 95.5639 6.71648 95.5639 6.71648H88.5658Z" fill="#4FB8A2"/>
<path d="M14.4705 8.00406C14.4118 4.11297 12.8804 0.948242 8.77402 0.948242C4.886 0.948242 3.49905 3.12694 3.49905 3.12694V1.35457H0V16.0237H3.49905V9.77808C3.49905 5.97573 5.20866 4.24321 7.38876 4.24321C10.6551 4.24321 10.9773 6.54475 10.9773 8.23866V16.0237H14.4764V8.00406H14.4705Z" fill="#4FB8A2"/>
<path d="M78.0425 1.35416V3.0115C78.0425 3.0115 76.6251 0.948242 73.5636 0.948242C70.0912 0.948242 66.8975 3.64091 66.8975 8.68935C66.8975 13.3187 69.8099 16.4153 73.2583 16.4153C75.9312 16.4153 76.9714 15.3861 78.0425 14.3824V15.8462V16.0434C78.0226 16.9029 77.7257 20.285 74.2875 20.285C72.349 20.285 71.2708 19.2764 70.7479 18.5599L67.9529 20.3762C68.7705 21.6005 70.5836 23.3433 74.2875 23.3433C79.2998 23.3433 81.2493 19.8055 81.4862 16.5389H81.512V15.8458C81.512 12.9851 81.512 8.00324 81.512 8.00324V1.35416H78.0425ZM74.6051 13.4609C72.2548 13.4609 70.6634 12.2407 70.6634 8.69674C70.6634 5.56448 72.1454 4.06367 74.4957 4.06367C76.2433 4.06367 78.0425 5.51394 78.0425 8.69674C78.0425 11.3216 76.8553 13.4609 74.6051 13.4609Z" fill="#4FB8A2"/>
<path d="M117.025 8.00406C116.966 4.11297 115.435 0.948242 111.329 0.948242C107.441 0.948242 106.054 3.12694 106.054 3.12694V1.35457H102.554V16.0237H106.054V9.77808C106.054 5.97573 107.763 4.24321 109.943 4.24321C113.21 4.24321 113.532 6.54475 113.532 8.23866V16.0237H117.031V8.00406H117.025Z" fill="#4FB8A2"/>
</svg>
